<svg id="svg" version="1.1" xmlns="http://www.w3.org/2000/svg" xmlns:xlink="http://www.w3.org/1999/xlink" width="400" height="400" viewBox="0, 0, 400,400"><g id="svgg"><path id="path0" d="M194.733 127.984 C 194.660 128.195,192.665 128.396,190.300 128.430 C 186.931 128.478,186.000 128.611,186.000 129.045 C 186.000 129.522,181.271 129.950,179.470 129.637 C 179.289 129.606,179.255 129.765,179.394 129.990 C 179.555 130.251,178.847 130.400,177.447 130.400 C 176.237 130.400,175.136 130.580,175.000 130.800 C 174.864 131.020,173.988 131.200,173.053 131.200 C 172.118 131.200,171.004 131.464,170.576 131.787 C 170.149 132.110,169.046 132.380,168.124 132.387 C 167.202 132.394,166.336 132.580,166.200 132.800 C 166.064 133.020,165.502 133.200,164.950 133.200 C 164.399 133.200,163.609 133.381,163.195 133.603 C 162.781 133.824,161.983 134.043,161.421 134.090 C 160.860 134.136,160.400 134.326,160.400 134.511 C 160.400 134.696,160.235 134.745,160.034 134.621 C 159.833 134.497,159.600 134.599,159.517 134.848 C 159.435 135.096,158.865 135.300,158.252 135.300 C 157.638 135.300,157.047 135.533,156.938 135.817 C 156.824 136.114,156.285 136.277,155.670 136.199 C 154.408 136.039,153.329 136.723,153.332 137.682 C 153.333 138.058,153.483 138.272,153.667 138.159 C 153.850 138.045,154.000 138.154,154.000 138.400 C 154.000 138.646,154.180 138.736,154.400 138.600 C 154.620 138.464,154.800 138.173,154.800 137.953 C 154.800 137.733,154.632 137.656,154.428 137.783 C 154.223 137.909,153.964 137.866,153.854 137.687 C 153.743 137.507,153.993 137.147,154.411 136.886 C 155.027 136.501,155.130 136.516,154.958 136.965 C 154.841 137.270,154.938 137.638,155.173 137.783 C 155.415 137.933,155.603 137.734,155.606 137.324 C 155.611 136.729,155.678 136.703,155.980 137.181 C 156.182 137.500,156.266 137.893,156.167 138.053 C 156.068 138.214,156.170 138.458,156.393 138.596 C 157.253 139.127,156.737 139.540,155.300 139.472 C 154.475 139.432,153.773 139.580,153.740 139.800 C 153.707 140.020,153.855 140.151,154.070 140.090 C 154.284 140.030,154.345 140.165,154.206 140.390 C 153.684 141.235,155.845 140.766,156.875 139.811 C 157.584 139.153,158.000 138.986,158.118 139.311 C 158.257 139.694,158.478 139.692,159.142 139.300 C 159.608 139.025,160.406 138.800,160.915 138.800 C 161.424 138.800,162.011 138.629,162.221 138.419 C 162.430 138.210,163.264 137.994,164.074 137.939 C 164.884 137.885,165.514 137.651,165.473 137.420 C 165.433 137.189,166.254 136.945,167.300 136.878 C 168.345 136.811,169.200 136.621,169.200 136.456 C 169.200 136.291,169.949 136.112,170.864 136.058 C 171.779 136.004,172.814 135.812,173.164 135.631 C 173.819 135.292,177.566 134.610,178.100 134.732 C 178.265 134.769,178.400 134.620,178.400 134.400 C 178.400 134.180,179.379 134.000,180.576 134.000 C 181.773 134.000,182.864 133.820,183.000 133.600 C 183.136 133.380,184.662 133.200,186.390 133.200 C 188.119 133.200,189.593 133.023,189.667 132.807 C 189.740 132.592,191.960 132.318,194.600 132.200 C 197.240 132.082,199.460 131.809,199.533 131.593 C 199.616 131.350,203.388 131.200,209.401 131.200 C 218.602 131.200,220.609 131.337,220.237 131.942 C 220.149 132.084,222.085 132.184,224.539 132.164 C 226.992 132.145,229.360 132.310,229.800 132.532 C 230.589 132.930,233.714 133.387,238.800 133.848 C 240.230 133.978,241.571 134.245,241.780 134.442 C 241.989 134.639,242.478 134.800,242.866 134.800 C 243.254 134.800,244.383 135.075,245.374 135.412 C 246.365 135.748,247.811 136.047,248.588 136.077 C 249.365 136.106,250.000 136.280,250.000 136.465 C 250.000 136.649,250.630 136.800,251.400 136.800 C 252.170 136.800,252.800 136.969,252.800 137.175 C 252.800 137.382,253.612 137.673,254.605 137.822 C 255.598 137.971,256.508 138.252,256.629 138.446 C 256.749 138.641,257.467 138.800,258.224 138.800 C 258.981 138.800,259.600 138.980,259.600 139.200 C 259.600 139.420,260.224 139.600,260.987 139.600 C 261.958 139.600,262.315 139.755,262.176 140.117 C 262.039 140.475,262.444 140.666,263.489 140.735 C 264.320 140.790,265.060 141.007,265.133 141.218 C 265.207 141.428,265.712 141.600,266.257 141.600 C 266.815 141.600,267.139 141.774,267.000 142.000 C 266.853 142.237,267.315 142.400,268.134 142.400 C 268.992 142.400,269.602 142.627,269.745 143.000 C 269.871 143.330,270.420 143.600,270.964 143.600 C 271.508 143.600,272.064 143.780,272.200 144.000 C 272.336 144.220,272.782 144.400,273.190 144.400 C 273.599 144.400,273.993 144.578,274.067 144.797 C 274.140 145.015,274.691 145.234,275.290 145.283 C 275.890 145.332,276.469 145.604,276.578 145.886 C 276.686 146.169,277.141 146.400,277.587 146.400 C 278.034 146.400,278.400 146.580,278.400 146.800 C 278.400 147.020,278.655 147.200,278.968 147.200 C 279.635 147.200,282.140 148.465,282.333 148.900 C 282.407 149.065,282.822 149.200,283.257 149.200 C 283.692 149.200,283.936 149.380,283.800 149.600 C 283.660 149.827,283.996 150.000,284.576 150.000 C 285.210 150.000,285.600 150.224,285.600 150.587 C 285.600 150.921,285.837 151.084,286.148 150.964 C 286.450 150.849,286.977 151.034,287.320 151.377 C 287.663 151.720,288.226 152.000,288.571 152.000 C 288.917 152.000,289.200 152.180,289.200 152.400 C 289.200 152.620,289.470 152.800,289.800 152.800 C 290.130 152.800,290.400 153.064,290.400 153.387 C 290.400 153.721,290.637 153.884,290.948 153.764 C 291.250 153.649,291.777 153.834,292.120 154.177 C 292.463 154.520,292.925 154.800,293.148 154.800 C 293.726 154.800,294.169 155.641,293.751 155.945 C 293.192 156.351,292.400 157.929,292.400 158.637 C 292.400 159.004,292.175 159.199,291.882 159.087 C 291.535 158.954,291.332 159.304,291.269 160.144 C 291.217 160.835,291.000 161.460,290.787 161.533 C 290.574 161.607,290.400 162.282,290.400 163.033 C 290.400 163.785,290.220 164.400,290.000 164.400 C 289.747 164.400,289.600 167.267,289.600 172.200 C 289.600 177.133,289.747 180.000,290.000 180.000 C 290.220 180.000,290.400 180.630,290.400 181.400 C 290.400 182.170,290.580 182.800,290.800 182.800 C 291.020 182.800,291.200 183.228,291.200 183.751 C 291.200 184.274,291.470 184.926,291.800 185.200 C 292.130 185.474,292.400 185.925,292.400 186.203 C 292.400 186.481,292.661 187.211,292.980 187.826 C 293.298 188.440,293.465 189.095,293.350 189.281 C 293.235 189.467,293.379 189.570,293.670 189.510 C 293.962 189.449,294.155 189.625,294.100 189.900 C 294.045 190.175,294.270 190.400,294.600 190.400 C 294.930 190.400,295.200 190.593,295.200 190.829 C 295.200 191.064,295.472 191.529,295.804 191.861 C 296.136 192.193,296.288 192.658,296.142 192.894 C 295.996 193.130,296.060 193.210,296.283 193.072 C 296.507 192.934,297.239 193.401,297.911 194.110 C 299.425 195.711,301.177 197.200,301.546 197.200 C 301.698 197.200,302.088 197.571,302.412 198.025 C 302.735 198.479,303.630 199.124,304.400 199.459 C 305.170 199.793,306.113 200.232,306.495 200.434 C 306.877 200.635,307.546 200.800,307.982 200.800 C 308.552 200.800,308.704 200.984,308.524 201.455 C 308.350 201.907,308.447 202.048,308.836 201.912 C 309.146 201.804,310.210 201.958,311.200 202.254 C 312.190 202.549,313.765 202.793,314.700 202.796 C 315.635 202.798,316.400 202.980,316.400 203.200 C 316.400 203.437,317.859 203.600,319.976 203.600 C 321.943 203.600,323.664 203.420,323.800 203.200 C 323.936 202.980,325.016 202.800,326.200 202.800 C 327.384 202.800,328.464 202.620,328.600 202.400 C 328.736 202.180,329.382 202.000,330.036 202.000 C 330.724 202.000,331.322 201.747,331.455 201.400 C 331.582 201.070,332.035 200.800,332.463 200.800 C 332.890 200.800,333.771 200.525,334.420 200.190 C 335.069 199.854,335.600 199.673,335.600 199.787 C 335.600 199.901,336.020 199.629,336.534 199.182 C 337.048 198.735,338.083 198.032,338.834 197.620 C 339.585 197.208,340.157 196.681,340.105 196.450 C 340.052 196.218,340.277 196.132,340.605 196.257 C 340.935 196.384,341.200 196.264,341.200 195.989 C 341.200 195.479,343.165 193.601,343.700 193.600 C 343.865 193.600,344.000 193.370,344.000 193.088 C 344.000 192.807,344.350 192.324,344.779 192.015 C 345.207 191.707,345.477 191.325,345.380 191.168 C 345.283 191.010,345.742 190.305,346.400 189.600 C 347.058 188.895,347.500 188.162,347.381 187.970 C 347.263 187.778,347.534 187.307,347.983 186.922 C 348.432 186.537,348.800 185.913,348.800 185.535 C 348.800 185.157,348.980 184.736,349.200 184.600 C 349.420 184.464,349.600 183.733,349.600 182.976 C 349.600 182.219,349.780 181.600,350.000 181.600 C 350.220 181.600,350.400 180.599,350.400 179.376 C 350.400 178.153,350.560 177.251,350.755 177.372 C 351.336 177.731,351.589 176.038,351.595 171.743 C 351.599 168.626,351.470 167.636,351.039 167.470 C 350.695 167.338,350.397 166.428,350.270 165.127 C 349.978 162.134,349.569 160.400,349.155 160.400 C 348.960 160.400,348.800 160.062,348.800 159.649 C 348.800 159.236,348.530 158.674,348.200 158.400 C 347.870 158.126,347.600 157.564,347.600 157.151 C 347.600 156.738,347.420 156.400,347.200 156.400 C 346.980 156.400,346.800 156.152,346.800 155.849 C 346.800 155.546,346.541 155.083,346.224 154.820 C 345.907 154.557,345.749 154.077,345.873 153.754 C 345.997 153.431,345.941 153.220,345.749 153.283 C 345.557 153.347,344.590 152.500,343.600 151.400 C 341.249 148.787,339.912 147.601,339.320 147.600 C 339.056 147.600,338.696 147.375,338.520 147.099 C 338.344 146.824,337.660 146.329,337.000 146.000 C 336.340 145.671,335.656 145.176,335.480 144.901 C 335.304 144.625,334.809 144.400,334.380 144.400 C 333.951 144.400,333.600 144.220,333.600 144.000 C 333.600 143.780,333.227 143.600,332.771 143.600 C 332.316 143.600,331.671 143.328,331.339 142.996 C 331.007 142.664,330.575 142.492,330.379 142.613 C 330.184 142.734,329.487 142.555,328.832 142.216 C 328.092 141.834,326.580 141.600,324.843 141.600 C 323.306 141.600,321.936 141.420,321.800 141.200 C 321.488 140.696,319.486 140.676,318.980 141.173 C 318.771 141.378,317.115 141.595,315.300 141.655 C 313.067 141.728,312.000 141.918,312.000 142.242 C 312.000 142.529,311.503 142.686,310.759 142.634 C 310.034 142.584,309.434 142.767,309.316 143.074 C 309.205 143.363,308.594 143.600,307.957 143.600 C 307.321 143.600,306.800 143.780,306.800 144.000 C 306.800 144.220,306.543 144.400,306.229 144.400 C 305.914 144.400,305.412 144.625,305.113 144.900 C 304.294 145.652,302.879 146.400,302.273 146.400 C 301.977 146.400,301.494 146.850,301.200 147.400 C 300.906 147.950,300.507 148.400,300.315 148.400 C 300.123 148.400,299.490 148.840,298.910 149.379 C 298.329 149.917,297.679 150.249,297.465 150.117 C 297.250 149.984,297.204 150.083,297.362 150.338 C 297.519 150.592,297.457 150.800,297.224 150.800 C 296.991 150.800,296.845 151.002,296.900 151.250 C 296.955 151.497,296.775 151.782,296.500 151.883 C 296.225 151.984,296.000 151.872,296.000 151.633 C 296.000 151.395,295.808 151.200,295.573 151.200 C 295.339 151.200,294.557 150.750,293.836 150.200 C 293.114 149.650,292.292 149.200,292.009 149.200 C 291.725 149.200,291.046 148.705,290.500 148.100 C 289.953 147.495,289.611 147.197,289.739 147.438 C 289.970 147.875,285.184 145.641,284.796 145.132 C 284.684 144.984,284.099 144.740,283.496 144.588 C 282.893 144.437,282.400 144.153,282.400 143.957 C 282.400 143.760,282.051 143.600,281.624 143.600 C 281.197 143.600,280.736 143.420,280.600 143.200 C 280.464 142.980,280.003 142.800,279.576 142.800 C 279.149 142.800,278.800 142.640,278.800 142.443 C 278.800 142.002,275.869 140.800,274.792 140.800 C 274.356 140.800,274.000 140.620,274.000 140.400 C 274.000 140.180,273.752 140.000,273.449 140.000 C 273.146 140.000,272.674 139.730,272.400 139.400 C 272.126 139.070,271.384 138.800,270.751 138.800 C 270.118 138.800,269.600 138.620,269.600 138.400 C 269.600 138.180,268.951 138.000,268.157 138.000 C 267.084 138.000,266.770 137.856,266.930 137.439 C 267.069 137.075,266.909 136.920,266.472 136.995 C 266.103 137.059,265.440 136.888,265.000 136.614 C 264.231 136.136,263.000 135.821,260.000 135.335 C 259.230 135.210,258.292 134.837,257.915 134.506 C 257.538 134.174,256.974 134.001,256.661 134.121 C 256.348 134.241,255.727 134.084,255.282 133.772 C 254.837 133.460,253.826 133.159,253.037 133.103 C 252.247 133.046,251.601 132.865,251.601 132.700 C 251.600 132.535,250.809 132.400,249.843 132.400 C 248.680 132.400,248.011 132.205,247.864 131.822 C 247.727 131.467,247.212 131.288,246.521 131.356 C 245.905 131.418,244.860 131.264,244.200 131.016 C 243.540 130.767,242.280 130.510,241.400 130.444 C 240.520 130.379,239.620 130.187,239.400 130.018 C 239.180 129.848,237.692 129.673,236.094 129.628 C 234.495 129.583,232.763 129.326,232.244 129.056 C 231.725 128.787,229.801 128.516,227.968 128.453 C 226.135 128.391,224.324 128.173,223.944 127.970 C 223.006 127.468,194.908 127.482,194.733 127.984 M146.400 139.200 C 146.400 139.420,146.051 139.600,145.624 139.600 C 145.197 139.600,144.752 139.754,144.636 139.942 C 144.288 140.504,146.337 139.958,146.837 139.356 C 147.172 138.952,147.175 138.800,146.849 138.800 C 146.602 138.800,146.400 138.980,146.400 139.200 M152.800 141.000 C 152.800 141.330,152.980 141.600,153.200 141.600 C 153.420 141.600,153.600 141.330,153.600 141.000 C 153.600 140.670,153.420 140.400,153.200 140.400 C 152.980 140.400,152.800 140.670,152.800 141.000 M148.000 143.049 C 148.000 143.580,148.109 143.608,148.600 143.200 C 148.930 142.926,149.200 142.634,149.200 142.551 C 149.200 142.468,148.930 142.400,148.600 142.400 C 148.270 142.400,148.000 142.692,148.000 143.049 " stroke="none" fill="#5f7bbb" fill-rule="evenodd"></path><path id="path1" d="M154.456 136.813 C 153.609 137.519,153.623 137.786,154.500 137.647 C 154.942 137.578,154.865 138.313,154.400 138.600 C 154.180 138.736,154.000 138.646,154.000 138.400 C 154.000 138.154,153.816 138.067,153.590 138.206 C 153.365 138.345,153.206 138.311,153.237 138.130 C 153.434 136.997,153.197 136.705,152.523 137.251 C 152.151 137.553,151.963 137.605,152.106 137.367 C 152.248 137.128,152.120 136.933,151.821 136.933 C 151.521 136.933,151.368 137.173,151.481 137.467 C 151.676 137.974,150.943 138.197,149.660 138.021 C 149.329 137.975,149.237 138.136,149.422 138.435 C 149.619 138.754,149.557 138.821,149.244 138.627 C 148.981 138.464,148.503 138.549,148.182 138.815 C 147.862 139.080,147.600 139.158,147.600 138.987 C 147.600 138.816,147.285 138.949,146.900 139.282 C 146.033 140.032,144.400 140.461,144.400 139.939 C 144.400 139.727,144.208 139.671,143.973 139.816 C 143.739 139.961,143.651 140.185,143.779 140.312 C 143.907 140.440,143.244 140.801,142.306 141.113 C 141.368 141.426,140.296 141.951,139.925 142.280 C 139.554 142.609,139.079 142.773,138.871 142.644 C 138.662 142.514,138.270 142.675,138.000 143.000 C 137.730 143.325,137.391 143.518,137.247 143.429 C 137.103 143.340,136.272 143.597,135.400 144.000 C 134.528 144.403,133.677 144.647,133.508 144.543 C 133.338 144.438,133.200 144.597,133.200 144.896 C 133.200 145.195,132.525 145.681,131.700 145.976 C 130.875 146.271,130.102 146.663,129.983 146.846 C 129.863 147.030,129.353 147.243,128.850 147.320 C 128.346 147.396,127.814 147.651,127.667 147.884 C 127.223 148.591,123.725 150.389,123.387 150.084 C 123.214 149.928,123.193 150.012,123.342 150.271 C 123.499 150.546,123.276 150.849,122.806 150.998 C 122.363 151.139,122.000 151.422,122.000 151.627 C 122.000 151.832,121.550 152.000,121.000 152.000 C 120.450 152.000,120.000 152.193,120.000 152.429 C 120.000 153.036,118.960 154.000,118.304 154.000 C 118.000 154.000,117.346 154.378,116.850 154.839 C 116.355 155.301,115.722 155.712,115.443 155.753 C 115.165 155.793,114.436 156.327,113.824 156.939 C 113.212 157.551,112.471 157.959,112.176 157.846 C 111.833 157.715,111.721 157.849,111.863 158.220 C 112.001 158.578,111.840 158.800,111.443 158.800 C 111.089 158.800,110.800 158.950,110.800 159.132 C 110.800 159.315,110.350 159.706,109.800 160.000 C 109.250 160.294,108.800 160.775,108.800 161.068 C 108.800 161.364,108.371 161.600,107.833 161.600 C 107.302 161.600,106.776 161.825,106.665 162.100 C 106.504 162.500,106.457 162.500,106.432 162.100 C 106.414 161.818,105.876 161.600,105.200 161.600 C 104.400 161.600,104.000 161.400,104.000 161.000 C 104.000 160.511,103.332 160.400,100.387 160.400 C 97.545 160.400,96.726 160.528,96.545 161.000 C 96.418 161.330,96.084 161.600,95.803 161.600 C 94.515 161.600,91.600 163.808,91.600 164.783 C 91.600 165.012,91.449 165.200,91.264 165.200 C 91.080 165.200,90.720 165.658,90.464 166.219 C 89.889 167.481,89.834 175.600,90.400 175.600 C 90.620 175.600,90.800 175.861,90.800 176.180 C 90.800 176.499,91.115 176.944,91.500 177.168 C 91.885 177.392,92.031 177.581,91.825 177.588 C 91.301 177.605,93.065 179.200,93.607 179.200 C 93.849 179.200,93.945 179.365,93.820 179.567 C 93.695 179.770,94.135 180.054,94.797 180.199 C 95.458 180.345,96.000 180.629,96.000 180.832 C 96.000 181.034,97.980 181.200,100.400 181.200 C 102.855 181.200,104.800 181.035,104.800 180.827 C 104.800 180.622,105.157 180.341,105.593 180.202 C 106.801 179.819,109.600 176.872,109.600 175.985 C 109.600 175.553,109.790 175.200,110.021 175.200 C 110.294 175.200,110.427 173.612,110.398 170.700 C 110.342 164.937,110.355 164.621,110.627 164.894 C 110.752 165.018,111.358 164.643,111.973 164.060 C 113.631 162.490,114.555 161.780,115.318 161.487 C 115.693 161.343,116.000 161.039,116.000 160.813 C 116.000 160.586,116.193 160.400,116.429 160.400 C 116.664 160.400,117.108 160.175,117.415 159.900 C 118.692 158.755,119.184 158.400,119.495 158.400 C 119.676 158.400,120.083 158.040,120.400 157.600 C 120.717 157.160,121.288 156.800,121.668 156.800 C 122.049 156.800,122.504 156.575,122.680 156.300 C 123.140 155.581,124.645 154.448,124.235 155.130 C 123.971 155.568,124.061 155.569,124.758 155.133 C 125.221 154.844,125.600 154.490,125.600 154.347 C 125.600 154.204,126.050 153.974,126.600 153.836 C 127.150 153.698,127.600 153.408,127.600 153.192 C 127.600 152.977,127.852 152.800,128.160 152.800 C 128.468 152.800,129.656 152.170,130.800 151.400 C 131.944 150.630,133.132 150.000,133.440 150.000 C 133.748 150.000,134.000 149.820,134.000 149.600 C 134.000 149.380,134.255 149.200,134.568 149.200 C 135.281 149.200,137.594 147.902,137.597 147.500 C 137.599 147.335,137.924 147.200,138.320 147.200 C 138.716 147.200,139.215 147.025,139.429 146.811 C 139.642 146.598,140.193 146.365,140.653 146.295 C 141.113 146.225,141.797 145.860,142.173 145.484 C 142.911 144.746,143.390 144.569,143.018 145.172 C 142.891 145.376,143.610 145.106,144.615 144.572 C 145.620 144.037,146.793 143.600,147.221 143.600 C 147.650 143.600,148.000 143.330,148.000 143.000 C 148.000 142.579,148.425 142.400,149.424 142.400 C 150.271 142.400,150.747 142.238,150.600 142.000 C 150.456 141.767,150.863 141.600,151.576 141.600 C 152.434 141.600,152.800 141.408,152.800 140.957 C 152.800 140.556,153.021 140.399,153.387 140.540 C 153.710 140.664,154.084 140.588,154.217 140.373 C 154.350 140.157,154.311 140.030,154.130 140.090 C 153.948 140.151,153.800 140.020,153.800 139.800 C 153.800 139.580,154.475 139.432,155.300 139.472 C 156.737 139.540,157.253 139.127,156.393 138.596 C 156.170 138.458,156.068 138.214,156.167 138.053 C 156.266 137.893,156.182 137.500,155.980 137.181 C 155.683 136.712,155.611 136.750,155.606 137.380 C 155.601 138.008,155.502 138.061,155.100 137.653 C 154.699 137.247,154.754 137.032,155.376 136.573 C 155.804 136.258,155.984 136.006,155.776 136.013 C 155.569 136.021,154.975 136.381,154.456 136.813 " stroke="none" fill="#54aac7" fill-rule="evenodd"></path><path id="path2" d="M33.600 208.029 C 33.600 208.233,32.700 208.400,31.600 208.400 C 30.089 208.400,29.600 208.547,29.600 209.000 C 29.600 209.419,29.178 209.600,28.200 209.600 C 27.430 209.600,26.800 209.780,26.800 210.000 C 26.800 210.220,26.339 210.400,25.776 210.400 C 25.196 210.400,24.860 210.573,25.000 210.800 C 25.215 211.148,24.404 211.390,23.500 211.247 C 23.335 211.221,23.200 211.470,23.200 211.800 C 23.200 212.130,22.911 212.400,22.557 212.400 C 22.141 212.400,21.998 212.618,22.153 213.021 C 22.290 213.379,22.223 213.538,21.992 213.395 C 21.561 213.128,20.400 214.100,20.400 214.729 C 20.400 214.941,20.130 215.218,19.800 215.345 C 19.470 215.471,19.200 215.901,19.200 216.299 C 19.200 216.697,18.840 217.283,18.400 217.600 C 17.880 217.975,17.600 218.635,17.600 219.488 C 17.600 220.389,17.412 220.800,16.999 220.800 C 16.491 220.800,16.402 221.671,16.425 226.400 C 16.448 230.984,16.557 232.000,17.026 232.000 C 17.419 232.000,17.600 232.456,17.600 233.443 C 17.600 234.538,17.739 234.832,18.180 234.663 C 18.567 234.515,18.685 234.633,18.537 235.020 C 18.414 235.339,18.514 235.600,18.757 235.600 C 19.001 235.600,19.200 235.862,19.200 236.182 C 19.200 236.502,19.650 237.214,20.200 237.764 C 20.750 238.314,21.200 238.952,21.200 239.182 C 21.200 239.412,21.568 239.600,22.018 239.600 C 22.468 239.600,23.286 240.050,23.836 240.600 C 24.386 241.150,25.098 241.600,25.418 241.600 C 25.738 241.600,26.000 241.780,26.000 242.000 C 26.000 242.220,26.630 242.400,27.400 242.400 C 28.170 242.400,28.800 242.580,28.800 242.800 C 28.800 243.020,29.411 243.200,30.157 243.200 C 30.995 243.200,31.603 243.430,31.745 243.800 C 31.896 244.194,32.520 244.400,33.564 244.400 C 34.438 244.400,35.264 244.580,35.400 244.800 C 35.536 245.020,36.447 245.200,37.424 245.200 C 38.401 245.200,39.200 245.380,39.200 245.600 C 39.200 245.820,40.010 246.000,41.000 246.000 C 42.333 246.000,42.800 246.156,42.800 246.600 C 42.800 247.019,43.222 247.200,44.200 247.200 C 44.970 247.200,45.600 247.380,45.600 247.600 C 45.600 247.820,46.230 248.000,47.000 248.000 C 47.770 248.000,48.400 248.180,48.400 248.400 C 48.400 248.620,48.934 248.800,49.587 248.800 C 50.479 248.800,50.717 248.950,50.545 249.400 C 50.336 249.944,50.808 250.198,51.730 250.037 C 51.911 250.006,51.966 250.132,51.851 250.317 C 51.737 250.503,51.993 250.907,52.421 251.215 C 52.850 251.524,53.200 252.026,53.200 252.331 C 53.200 252.636,53.425 252.799,53.700 252.694 C 54.073 252.550,54.200 253.286,54.200 255.600 C 54.200 257.914,54.073 258.650,53.700 258.506 C 53.423 258.400,53.200 258.612,53.200 258.981 C 53.200 259.347,53.020 259.536,52.800 259.400 C 52.580 259.264,52.400 259.433,52.400 259.776 C 52.400 260.119,52.119 260.400,51.776 260.400 C 51.433 260.400,51.264 260.580,51.400 260.800 C 51.536 261.020,51.367 261.200,51.024 261.200 C 50.681 261.200,50.400 261.380,50.400 261.600 C 50.400 261.820,50.034 262.000,49.587 262.000 C 49.141 262.000,48.671 262.270,48.545 262.600 C 48.403 262.970,47.795 263.200,46.957 263.200 C 46.211 263.200,45.600 263.380,45.600 263.600 C 45.600 263.848,43.467 264.000,40.000 264.000 C 36.533 264.000,34.400 263.848,34.400 263.600 C 34.400 263.380,33.519 263.200,32.443 263.200 C 31.072 263.200,30.417 263.020,30.255 262.600 C 30.121 262.249,29.521 262.000,28.813 262.000 C 28.146 262.000,27.600 261.820,27.600 261.600 C 27.600 261.380,27.240 261.200,26.800 261.200 C 26.360 261.200,26.000 261.020,26.000 260.800 C 26.000 260.580,25.569 260.400,25.043 260.400 C 24.516 260.400,23.982 260.130,23.855 259.800 C 23.729 259.470,23.304 259.196,22.913 259.191 C 22.521 259.187,21.662 258.557,21.004 257.791 C 19.771 256.358,18.400 255.941,18.400 257.000 C 18.400 257.330,18.220 257.600,18.000 257.600 C 17.780 257.600,17.600 257.960,17.600 258.400 C 17.600 258.844,17.333 259.200,17.000 259.200 C 16.627 259.200,16.400 259.578,16.400 260.200 C 16.400 260.750,16.220 261.200,16.000 261.200 C 15.780 261.200,15.600 261.635,15.600 262.167 C 15.600 262.698,15.444 263.193,15.253 263.267 C 13.651 263.882,15.631 267.600,17.560 267.600 C 18.040 267.600,18.400 267.857,18.400 268.200 C 18.400 268.530,18.670 268.800,19.000 268.800 C 19.330 268.800,19.600 268.980,19.600 269.200 C 19.600 269.420,19.960 269.600,20.400 269.600 C 20.840 269.600,21.200 269.800,21.200 270.045 C 21.200 270.317,21.689 270.419,22.454 270.307 C 23.429 270.164,23.750 270.287,23.900 270.861 C 24.040 271.396,24.467 271.600,25.447 271.600 C 26.191 271.600,26.800 271.757,26.800 271.949 C 26.800 272.141,27.645 272.315,28.677 272.336 C 29.875 272.360,30.672 272.585,30.881 272.958 C 31.380 273.851,48.042 273.901,48.930 273.013 C 49.267 272.676,50.166 272.400,50.929 272.400 C 51.736 272.400,52.403 272.170,52.526 271.849 C 52.657 271.506,53.112 271.371,53.733 271.489 C 54.454 271.627,54.851 271.451,55.171 270.855 C 55.434 270.363,55.852 270.122,56.206 270.258 C 56.533 270.383,56.800 270.286,56.800 270.043 C 56.800 269.799,57.051 269.600,57.357 269.600 C 57.664 269.600,58.017 269.333,58.142 269.007 C 58.272 268.669,58.635 268.515,58.985 268.650 C 59.381 268.802,59.600 268.657,59.600 268.243 C 59.600 267.889,59.889 267.600,60.243 267.600 C 60.640 267.600,60.801 267.378,60.663 267.020 C 60.507 266.612,60.633 266.514,61.090 266.690 C 61.566 266.873,61.674 266.769,61.494 266.302 C 61.225 265.599,62.405 264.000,63.194 264.000 C 63.511 264.000,63.623 263.635,63.502 263.000 C 63.374 262.329,63.490 262.000,63.855 262.000 C 64.232 262.000,64.400 261.459,64.400 260.243 C 64.400 259.096,64.597 258.410,64.967 258.268 C 65.828 257.938,65.745 251.802,64.868 250.925 C 64.496 250.553,64.272 249.795,64.341 249.139 C 64.407 248.513,64.267 248.000,64.030 248.000 C 63.794 248.000,63.600 247.550,63.600 247.000 C 63.600 246.378,63.373 246.000,63.000 246.000 C 62.670 246.000,62.400 245.728,62.400 245.396 C 62.400 244.664,60.306 242.400,59.628 242.400 C 59.008 242.400,58.000 241.400,58.000 240.785 C 58.000 240.482,57.643 240.403,57.000 240.564 C 56.240 240.755,56.000 240.659,56.000 240.165 C 56.000 239.768,55.779 239.599,55.432 239.732 C 55.120 239.852,54.484 239.620,54.019 239.216 C 53.542 238.803,52.831 238.572,52.391 238.686 C 51.901 238.815,51.517 238.650,51.362 238.245 C 51.202 237.827,50.637 237.600,49.757 237.600 C 49.011 237.600,48.400 237.421,48.400 237.203 C 48.400 236.984,47.659 236.835,46.754 236.870 C 45.656 236.913,44.996 236.736,44.773 236.337 C 44.544 235.929,43.858 235.755,42.619 235.789 C 41.340 235.825,40.800 235.681,40.800 235.304 C 40.800 234.928,40.314 234.796,39.173 234.864 C 38.278 234.916,37.423 234.781,37.273 234.563 C 37.123 234.345,36.493 234.130,35.874 234.085 C 35.254 234.041,34.484 233.741,34.162 233.419 C 33.840 233.097,33.312 232.936,32.988 233.060 C 32.621 233.201,32.400 233.044,32.400 232.643 C 32.400 232.253,32.064 232.000,31.547 232.000 C 30.793 232.000,28.802 230.221,28.800 229.547 C 28.800 229.407,28.422 229.194,27.960 229.074 C 27.475 228.947,27.236 228.666,27.394 228.409 C 27.545 228.165,27.498 227.748,27.288 227.482 C 26.606 226.618,26.455 224.754,27.049 224.526 C 27.352 224.409,27.600 223.884,27.600 223.357 C 27.600 222.831,27.788 222.400,28.018 222.400 C 28.561 222.400,30.400 220.561,30.400 220.018 C 30.400 219.788,30.670 219.600,31.000 219.600 C 31.330 219.600,31.600 219.420,31.600 219.200 C 31.600 218.980,31.949 218.800,32.376 218.800 C 32.803 218.800,33.264 218.620,33.400 218.400 C 33.536 218.180,34.182 218.000,34.836 218.000 C 35.524 218.000,36.122 217.747,36.255 217.400 C 36.441 216.915,37.361 216.800,41.043 216.800 C 44.827 216.800,45.600 216.902,45.600 217.400 C 45.600 217.853,46.089 218.000,47.600 218.000 C 48.700 218.000,49.600 218.180,49.600 218.400 C 49.600 218.620,50.230 218.800,51.000 218.800 C 51.770 218.800,52.400 218.980,52.400 219.200 C 52.400 219.420,52.741 219.600,53.157 219.600 C 53.574 219.600,54.018 219.870,54.145 220.200 C 54.271 220.530,54.741 220.800,55.187 220.800 C 55.634 220.800,56.000 220.980,56.000 221.200 C 56.000 221.879,59.129 221.653,59.995 220.911 C 60.438 220.532,60.800 219.733,60.800 219.135 C 60.800 218.537,60.980 217.936,61.200 217.800 C 61.420 217.664,61.600 217.218,61.600 216.810 C 61.600 216.401,61.825 215.975,62.100 215.864 C 62.476 215.711,62.452 215.556,62.000 215.237 C 61.593 214.949,61.561 214.810,61.900 214.806 C 62.175 214.803,62.400 214.429,62.400 213.976 C 62.400 213.523,62.220 213.264,62.000 213.400 C 61.780 213.536,61.600 213.449,61.600 213.207 C 61.600 212.343,60.057 211.092,59.251 211.302 C 58.691 211.449,58.522 211.347,58.673 210.955 C 58.821 210.569,58.568 210.400,57.843 210.400 C 57.269 210.400,56.800 210.220,56.800 210.000 C 56.800 209.780,55.990 209.600,55.000 209.600 C 53.671 209.600,53.200 209.444,53.200 209.003 C 53.200 208.564,52.782 208.422,51.619 208.468 C 50.750 208.502,49.780 208.316,49.465 208.054 C 48.764 207.472,33.600 207.448,33.600 208.029 M74.801 215.100 L 74.800 219.600 72.500 219.604 C 71.235 219.607,69.525 219.720,68.700 219.857 L 67.200 220.105 67.200 223.652 L 67.200 227.200 71.000 227.200 L 74.800 227.200 74.800 246.600 C 74.800 259.267,74.939 266.000,75.200 266.000 C 75.420 266.000,75.600 266.261,75.600 266.580 C 75.600 266.899,75.853 267.304,76.162 267.480 C 76.471 267.656,76.786 268.160,76.862 268.600 C 77.022 269.528,77.754 270.400,78.371 270.400 C 78.607 270.400,78.800 270.670,78.800 271.000 C 78.800 271.333,79.156 271.600,79.600 271.600 C 80.040 271.600,80.400 271.780,80.400 272.000 C 80.400 272.220,80.773 272.400,81.229 272.400 C 81.684 272.400,82.309 272.652,82.617 272.960 C 83.482 273.825,93.600 273.876,93.600 273.015 C 93.600 272.579,94.007 272.400,95.000 272.400 C 95.770 272.400,96.400 272.233,96.400 272.028 C 96.400 271.823,96.805 271.598,97.300 271.528 C 98.227 271.396,98.878 268.000,97.976 268.000 C 97.769 268.000,97.600 267.550,97.600 267.000 C 97.600 266.378,97.373 266.000,97.000 266.000 C 96.581 266.000,96.400 265.578,96.400 264.600 C 96.400 262.905,94.276 262.506,93.200 264.000 C 91.946 265.740,85.200 264.941,85.200 263.052 C 85.200 262.719,85.020 262.336,84.800 262.200 C 84.543 262.041,84.400 255.729,84.400 244.576 L 84.400 227.200 90.000 227.200 L 95.600 227.200 95.600 223.468 C 95.600 220.180,95.517 219.737,94.900 219.740 C 94.515 219.741,92.001 219.711,89.313 219.671 L 84.426 219.600 84.313 215.118 L 84.200 210.637 79.501 210.618 L 74.801 210.600 74.801 215.100 M348.897 243.700 L 349.000 273.400 351.599 273.400 L 354.198 273.400 354.060 267.737 C 353.919 261.932,354.099 260.405,354.927 260.394 C 355.579 260.385,358.000 258.203,358.000 257.624 C 358.000 257.365,358.180 257.264,358.400 257.400 C 358.620 257.536,358.822 257.457,358.850 257.224 C 358.878 256.991,358.923 256.635,358.950 256.433 C 358.978 256.232,359.164 255.917,359.364 255.733 C 359.576 255.540,359.608 255.610,359.441 255.900 C 359.282 256.175,359.266 256.400,359.405 256.400 C 359.816 256.400,360.800 255.292,360.800 254.829 C 360.800 254.593,360.988 254.400,361.218 254.400 C 361.726 254.400,363.394 252.777,363.709 251.977 C 363.882 251.539,363.944 251.568,363.968 252.100 C 363.986 252.485,364.180 252.800,364.400 252.800 C 364.620 252.800,364.800 253.160,364.800 253.600 C 364.800 254.040,364.980 254.400,365.200 254.400 C 365.420 254.400,365.600 254.640,365.600 254.932 C 365.600 255.225,366.050 255.706,366.600 256.000 C 367.150 256.294,367.600 256.785,367.600 257.091 C 367.600 257.397,367.780 257.536,368.000 257.400 C 368.227 257.260,368.400 257.596,368.400 258.176 C 368.400 258.820,368.623 259.200,369.000 259.200 C 369.330 259.200,369.600 259.489,369.600 259.843 C 369.600 260.240,369.822 260.401,370.180 260.263 C 370.587 260.107,370.686 260.233,370.512 260.686 C 370.347 261.116,370.420 261.235,370.732 261.042 C 371.013 260.868,371.200 261.002,371.200 261.376 C 371.200 261.719,371.470 262.000,371.800 262.000 C 372.140 262.000,372.400 262.359,372.400 262.829 C 372.400 263.707,373.264 264.800,373.959 264.800 C 374.188 264.800,374.271 265.070,374.145 265.400 C 373.984 265.820,374.175 266.000,374.781 266.000 C 375.257 266.000,375.536 266.180,375.400 266.400 C 375.264 266.620,375.343 266.800,375.576 266.800 C 375.809 266.800,376.000 267.166,376.000 267.613 C 376.000 268.059,376.269 268.528,376.598 268.654 C 376.926 268.781,377.096 269.045,376.974 269.242 C 376.852 269.439,376.956 269.600,377.205 269.600 C 377.778 269.600,378.800 270.607,378.800 271.171 C 378.800 271.407,379.064 271.600,379.387 271.600 C 379.731 271.600,379.884 271.836,379.756 272.169 C 379.405 273.086,381.045 273.662,383.725 273.564 C 386.811 273.451,387.200 273.311,387.200 272.314 C 387.200 271.809,387.002 271.590,386.662 271.721 C 386.278 271.868,386.177 271.654,386.308 270.968 C 386.429 270.334,386.274 269.927,385.848 269.763 C 385.494 269.627,385.304 269.355,385.426 269.158 C 385.548 268.961,385.431 268.800,385.168 268.800 C 384.533 268.800,383.629 267.579,383.613 266.700 C 383.606 266.315,383.330 266.000,383.000 266.000 C 382.670 266.000,382.400 265.812,382.400 265.582 C 382.400 265.039,380.561 263.200,380.018 263.200 C 379.788 263.200,379.600 262.790,379.600 262.288 C 379.600 261.787,379.240 261.117,378.800 260.800 C 378.360 260.483,378.000 259.993,378.000 259.712 C 378.000 259.430,377.807 259.200,377.571 259.200 C 377.028 259.200,375.822 258.009,375.784 257.435 C 375.726 256.581,375.106 255.600,374.625 255.600 C 374.356 255.600,373.894 255.150,373.600 254.600 C 373.306 254.050,372.915 253.600,372.732 253.600 C 372.550 253.600,372.400 253.363,372.400 253.074 C 372.400 252.784,371.495 251.593,370.388 250.426 C 368.423 248.355,368.327 247.288,370.100 247.213 C 370.265 247.206,370.400 247.007,370.400 246.771 C 370.400 246.305,371.385 245.200,371.800 245.200 C 372.134 245.200,373.200 244.134,373.200 243.800 C 373.200 243.385,374.305 242.400,374.771 242.400 C 375.007 242.400,375.200 242.265,375.200 242.100 C 375.202 241.389,377.166 239.600,377.947 239.600 C 378.416 239.600,378.800 239.396,378.800 239.147 C 378.800 238.668,380.789 236.801,381.300 236.800 C 381.465 236.800,381.600 236.607,381.600 236.371 C 381.600 235.905,382.585 234.800,383.000 234.800 C 383.415 234.800,384.400 233.695,384.400 233.229 C 384.400 232.993,384.670 232.800,385.000 232.800 C 385.333 232.800,385.600 232.444,385.600 232.000 C 385.600 230.616,378.487 230.804,377.426 232.217 C 377.007 232.776,376.450 233.151,376.190 233.052 C 375.627 232.836,374.283 234.287,374.588 234.781 C 374.705 234.971,374.441 235.031,374.001 234.916 C 373.435 234.768,373.200 234.903,373.200 235.377 C 373.200 235.746,373.020 235.936,372.800 235.800 C 372.580 235.664,372.400 235.803,372.400 236.109 C 372.400 236.415,371.970 236.895,371.444 237.176 C 370.918 237.458,370.258 238.118,369.976 238.644 C 369.695 239.170,369.302 239.600,369.104 239.600 C 368.605 239.600,367.600 240.650,367.600 241.171 C 367.600 241.407,367.330 241.600,367.000 241.600 C 366.670 241.600,366.445 241.735,366.500 241.900 C 366.555 242.065,366.506 242.200,366.390 242.200 C 365.897 242.200,364.903 243.434,365.101 243.800 C 365.220 244.020,365.097 243.997,364.829 243.750 C 364.456 243.407,363.694 243.956,361.633 246.050 C 360.144 247.562,358.718 248.800,358.463 248.800 C 358.208 248.800,358.000 249.070,358.000 249.400 C 358.000 249.730,357.820 250.000,357.600 250.000 C 357.380 250.000,357.200 250.281,357.200 250.624 C 357.200 250.967,357.020 251.136,356.800 251.000 C 356.580 250.864,356.400 251.053,356.400 251.419 C 356.400 251.847,356.185 252.003,355.800 251.855 C 355.394 251.700,355.200 251.876,355.200 252.400 C 355.200 252.933,355.008 253.101,354.586 252.939 C 354.042 252.731,353.984 250.456,354.086 233.351 L 354.200 214.000 351.497 214.000 L 348.795 214.000 348.897 243.700 M276.572 215.555 C 276.692 215.750,276.433 216.003,275.996 216.117 C 274.951 216.390,274.766 221.600,275.800 221.600 C 276.130 221.600,276.400 221.780,276.400 222.000 C 276.400 222.229,277.614 222.400,279.243 222.400 C 281.561 222.400,282.045 222.293,281.863 221.820 C 281.715 221.433,281.833 221.315,282.220 221.463 C 282.635 221.622,282.800 221.389,282.800 220.643 C 282.800 220.069,282.980 219.600,283.200 219.600 C 283.815 219.600,283.674 217.203,283.044 216.962 C 282.723 216.838,282.574 216.422,282.691 215.974 C 282.879 215.255,282.660 215.200,279.623 215.200 C 277.824 215.200,276.451 215.360,276.572 215.555 M232.700 217.114 C 231.659 217.329,231.608 272.964,232.648 273.363 C 233.147 273.554,233.248 273.426,233.086 272.805 C 232.970 272.362,233.038 272.100,233.237 272.223 C 233.437 272.346,233.600 272.710,233.600 273.032 C 233.600 273.625,267.498 273.921,269.010 273.341 C 269.785 273.043,269.870 268.009,269.100 267.983 C 268.825 267.973,261.625 267.980,253.100 267.999 L 237.600 268.034 237.600 242.644 C 237.600 218.021,237.577 217.247,236.837 217.012 C 236.093 216.775,234.100 216.825,232.700 217.114 M67.889 224.500 C 67.801 225.215,67.728 224.630,67.728 223.200 C 67.728 221.770,67.801 221.185,67.889 221.900 C 67.978 222.615,67.978 223.785,67.889 224.500 M153.035 221.898 C 152.906 222.027,152.800 223.903,152.800 226.067 L 152.800 230.000 149.600 230.000 L 146.400 230.000 146.400 234.200 L 146.400 238.400 149.600 238.400 L 152.800 238.400 152.844 249.300 C 152.899 263.028,152.963 264.406,153.562 264.776 C 153.830 264.942,154.066 265.646,154.086 266.339 C 154.106 267.033,154.274 267.600,154.461 267.600 C 154.647 267.600,154.800 267.851,154.800 268.157 C 154.800 268.464,155.072 268.819,155.404 268.946 C 155.736 269.073,155.961 269.403,155.904 269.679 C 155.847 269.955,156.205 270.243,156.700 270.318 C 157.195 270.394,157.600 270.713,157.600 271.028 C 157.600 271.343,157.870 271.600,158.200 271.600 C 158.530 271.600,158.800 271.780,158.800 272.000 C 158.800 272.220,159.430 272.400,160.200 272.400 C 161.195 272.400,161.600 272.578,161.600 273.018 C 161.600 273.878,171.719 273.824,172.585 272.958 C 172.892 272.651,173.426 272.400,173.771 272.400 C 174.117 272.400,174.400 272.220,174.400 272.000 C 174.400 271.780,174.851 271.600,175.402 271.600 C 176.366 271.600,176.402 271.509,176.350 269.200 C 176.320 267.880,176.139 266.800,175.948 266.800 C 175.756 266.800,175.600 266.350,175.600 265.800 C 175.600 265.178,175.373 264.800,175.000 264.800 C 174.667 264.800,174.400 264.444,174.400 264.000 C 174.400 263.467,174.133 263.200,173.600 263.200 C 173.160 263.200,172.800 263.380,172.800 263.600 C 172.800 263.820,172.451 264.000,172.024 264.000 C 171.597 264.000,171.136 264.180,171.000 264.400 C 170.864 264.620,169.503 264.800,167.976 264.800 C 166.392 264.800,165.200 264.628,165.200 264.400 C 165.200 264.180,165.007 264.000,164.771 264.000 C 164.218 264.000,163.200 262.982,163.200 262.429 C 163.200 262.193,163.020 262.000,162.800 262.000 C 162.542 262.000,162.400 257.800,162.400 250.200 L 162.400 238.400 168.016 238.400 L 173.632 238.400 173.571 234.200 L 173.509 230.000 167.955 230.000 L 162.400 230.000 162.400 225.826 L 162.400 221.651 157.835 221.657 C 155.325 221.660,153.165 221.769,153.035 221.898 M113.739 230.586 C 113.933 231.092,113.590 231.200,111.787 231.200 C 110.584 231.200,109.600 231.380,109.600 231.600 C 109.600 231.820,109.150 232.000,108.600 232.000 C 108.013 232.000,107.641 232.207,107.700 232.500 C 107.755 232.775,107.455 233.001,107.033 233.002 C 106.611 233.003,106.191 233.228,106.099 233.502 C 106.008 233.776,105.633 234.006,105.267 234.013 C 103.815 234.040,102.165 236.800,103.600 236.800 C 103.820 236.800,104.000 237.179,104.000 237.643 C 104.000 238.221,104.185 238.415,104.590 238.259 C 105.045 238.085,105.149 238.305,105.043 239.216 C 104.949 240.019,105.081 240.400,105.452 240.400 C 105.770 240.400,106.000 240.820,106.000 241.400 C 106.000 242.303,106.158 242.400,107.629 242.400 C 109.200 242.400,110.400 241.719,110.400 240.829 C 110.400 240.593,110.831 240.400,111.357 240.400 C 111.884 240.400,112.407 240.159,112.520 239.864 C 112.654 239.516,113.160 239.391,113.963 239.509 C 114.910 239.648,115.200 239.539,115.200 239.045 C 115.200 238.524,115.656 238.400,117.567 238.400 C 119.104 238.400,119.992 238.225,120.102 237.900 C 120.235 237.503,120.398 237.506,120.893 237.914 C 121.574 238.476,122.433 238.427,122.894 237.800 C 123.076 237.552,123.190 237.590,123.194 237.900 C 123.197 238.188,123.710 238.400,124.400 238.400 C 125.200 238.400,125.600 238.600,125.600 239.000 C 125.600 239.330,125.870 239.600,126.200 239.600 C 126.530 239.600,126.800 239.780,126.800 240.000 C 126.800 240.220,127.160 240.400,127.600 240.400 C 128.090 240.400,128.400 240.667,128.400 241.087 C 128.400 241.465,128.833 242.147,129.363 242.602 C 130.294 243.402,130.589 244.556,130.460 246.900 L 130.400 248.000 121.000 248.000 C 115.000 248.000,111.600 248.145,111.600 248.400 C 111.600 248.620,110.970 248.800,110.200 248.800 C 109.222 248.800,108.800 248.981,108.800 249.400 C 108.800 249.740,108.441 250.000,107.971 250.000 C 106.995 250.000,106.000 250.888,106.000 251.759 C 106.000 252.169,105.778 252.290,105.334 252.119 C 104.887 251.948,104.764 252.017,104.958 252.332 C 105.132 252.613,104.998 252.800,104.624 252.800 C 104.273 252.800,104.000 253.140,104.000 253.576 C 104.000 254.003,103.820 254.464,103.600 254.600 C 103.380 254.736,103.200 255.551,103.200 256.411 C 103.200 257.637,103.070 257.925,102.600 257.745 C 102.097 257.552,102.000 258.039,102.000 260.757 C 102.000 263.373,102.116 264.000,102.600 264.000 C 103.004 264.000,103.200 264.404,103.200 265.240 C 103.200 266.110,103.569 266.824,104.442 267.640 C 105.126 268.278,105.475 268.800,105.219 268.800 C 104.962 268.800,104.864 268.980,105.000 269.200 C 105.136 269.420,105.597 269.600,106.024 269.600 C 106.451 269.600,106.800 269.780,106.800 270.000 C 106.800 270.220,107.070 270.400,107.400 270.400 C 107.730 270.400,108.000 270.670,108.000 271.000 C 108.000 271.333,108.356 271.600,108.800 271.600 C 109.240 271.600,109.600 271.780,109.600 272.000 C 109.600 272.220,110.211 272.400,110.957 272.400 C 111.809 272.400,112.402 272.629,112.550 273.015 C 112.884 273.885,124.335 273.835,124.670 272.963 C 124.797 272.632,125.445 272.400,126.243 272.400 C 126.989 272.400,127.600 272.220,127.600 272.000 C 127.600 271.780,127.977 271.600,128.437 271.600 C 128.937 271.600,129.359 271.279,129.483 270.804 C 129.597 270.367,129.850 270.108,130.045 270.228 C 130.240 270.349,130.400 270.257,130.400 270.024 C 130.400 268.626,131.178 269.934,131.278 271.500 L 131.400 273.400 135.507 273.463 L 139.614 273.526 139.591 256.963 C 139.577 246.653,139.424 240.400,139.184 240.400 C 138.973 240.400,138.800 239.847,138.800 239.171 C 138.800 237.946,138.041 236.800,137.229 236.800 C 136.993 236.800,136.800 236.461,136.800 236.047 C 136.800 235.099,134.402 232.714,133.714 232.978 C 133.431 233.086,133.200 232.911,133.200 232.587 C 133.200 232.228,132.813 232.000,132.200 232.000 C 131.650 232.000,131.200 231.820,131.200 231.600 C 131.200 231.380,130.750 231.200,130.200 231.200 C 129.602 231.200,129.200 230.971,129.200 230.631 C 129.200 230.160,127.850 230.054,121.352 230.017 C 114.447 229.977,113.532 230.045,113.739 230.586 M193.745 230.600 C 193.925 231.071,193.634 231.200,192.387 231.200 C 191.514 231.200,190.800 231.380,190.800 231.600 C 190.800 231.820,190.350 232.000,189.800 232.000 C 189.206 232.000,188.800 232.229,188.800 232.565 C 188.800 232.875,188.498 233.085,188.129 233.031 C 187.760 232.977,186.828 233.577,186.059 234.366 C 185.290 235.155,184.512 235.755,184.330 235.700 C 184.149 235.645,184.000 235.827,184.000 236.105 C 184.000 236.383,183.550 236.948,183.000 237.361 C 182.450 237.774,182.000 238.447,182.000 238.856 C 182.000 239.265,181.820 239.600,181.600 239.600 C 181.380 239.600,181.200 240.050,181.200 240.600 C 181.200 241.150,181.020 241.600,180.800 241.600 C 180.580 241.600,180.400 242.050,180.400 242.600 C 180.400 243.150,180.265 243.579,180.100 243.553 C 179.297 243.426,179.151 243.661,179.651 244.277 C 180.089 244.817,180.093 244.889,179.666 244.632 C 179.248 244.380,179.159 244.681,179.256 246.026 C 179.335 247.119,179.202 247.799,178.890 247.903 C 178.277 248.108,178.189 255.600,178.800 255.600 C 179.020 255.600,179.200 256.429,179.200 257.443 C 179.200 258.916,179.320 259.239,179.800 259.055 C 180.271 258.875,180.400 259.166,180.400 260.413 C 180.400 261.286,180.580 262.000,180.800 262.000 C 181.020 262.000,181.200 262.420,181.200 262.932 C 181.200 263.518,181.572 264.064,182.200 264.400 C 182.750 264.694,183.200 265.266,183.200 265.671 C 183.200 266.552,185.251 268.800,186.055 268.800 C 186.368 268.800,186.883 269.160,187.200 269.600 C 187.517 270.040,188.187 270.400,188.688 270.400 C 189.232 270.400,189.600 270.642,189.600 271.000 C 189.600 271.373,189.978 271.600,190.600 271.600 C 191.150 271.600,191.600 271.780,191.600 272.000 C 191.600 272.220,192.391 272.400,193.357 272.400 C 194.571 272.400,195.188 272.591,195.351 273.016 C 195.693 273.907,207.829 273.835,208.330 272.938 C 208.511 272.615,209.231 272.334,209.930 272.314 C 210.628 272.295,211.200 272.126,211.200 271.939 C 211.200 271.753,211.650 271.600,212.200 271.600 C 212.822 271.600,213.200 271.373,213.200 271.000 C 213.200 270.642,213.568 270.400,214.112 270.400 C 214.613 270.400,215.283 270.040,215.600 269.600 C 215.917 269.160,216.457 268.800,216.799 268.800 C 218.790 268.800,219.604 264.566,217.800 263.600 C 217.250 263.306,216.800 262.825,216.800 262.532 C 216.800 261.963,216.177 261.802,215.899 262.300 C 215.807 262.465,215.791 262.362,215.864 262.070 C 216.076 261.229,214.966 260.400,213.629 260.400 C 212.953 260.400,212.400 260.550,212.400 260.732 C 212.400 260.915,211.950 261.306,211.400 261.600 C 210.850 261.894,210.400 262.375,210.400 262.668 C 210.400 262.969,209.966 263.200,209.400 263.200 C 208.850 263.200,208.400 263.380,208.400 263.600 C 208.400 263.820,207.770 264.000,207.000 264.000 C 206.230 264.000,205.600 264.180,205.600 264.400 C 205.600 264.639,204.067 264.800,201.800 264.800 C 199.533 264.800,198.000 264.639,198.000 264.400 C 198.000 264.180,197.370 264.000,196.600 264.000 C 195.830 264.000,195.200 263.820,195.200 263.600 C 195.200 263.380,194.927 263.200,194.593 263.200 C 194.259 263.200,193.374 262.570,192.626 261.800 C 191.879 261.030,191.072 260.400,190.833 260.400 C 190.595 260.400,190.400 260.130,190.400 259.800 C 190.400 259.470,190.220 259.200,190.000 259.200 C 189.780 259.200,189.600 258.840,189.600 258.400 C 189.600 257.960,189.420 257.600,189.200 257.600 C 188.980 257.600,188.800 256.985,188.800 256.233 C 188.800 255.482,188.575 254.776,188.300 254.665 C 188.025 254.554,195.405 254.449,204.700 254.432 L 221.600 254.400 221.600 250.833 C 221.600 248.421,221.445 247.215,221.121 247.107 C 220.821 247.007,220.679 246.249,220.740 245.074 C 220.816 243.608,220.702 243.200,220.218 243.200 C 219.778 243.200,219.600 242.796,219.600 241.800 C 219.600 240.864,219.414 240.400,219.037 240.400 C 218.657 240.400,218.548 240.119,218.702 239.533 C 218.876 238.865,218.786 238.720,218.310 238.903 C 217.850 239.079,217.742 238.942,217.892 238.370 C 218.005 237.936,217.890 237.600,217.628 237.600 C 217.027 237.600,215.200 235.776,215.200 235.175 C 215.200 234.922,214.930 234.818,214.600 234.945 C 214.235 235.085,214.000 234.945,214.000 234.587 C 214.000 234.264,213.820 234.000,213.600 234.000 C 213.380 234.000,213.200 233.736,213.200 233.413 C 213.200 233.079,212.963 232.916,212.652 233.036 C 212.350 233.151,211.823 232.966,211.480 232.623 C 211.137 232.280,210.574 232.000,210.229 232.000 C 209.883 232.000,209.600 231.820,209.600 231.600 C 209.600 231.380,209.169 231.200,208.643 231.200 C 208.116 231.200,207.582 230.930,207.455 230.600 C 207.263 230.099,206.094 230.000,200.370 230.000 C 194.440 230.000,193.546 230.081,193.745 230.600 M314.145 230.600 C 313.980 231.030,313.308 231.200,311.781 231.200 C 310.607 231.200,309.536 231.380,309.400 231.600 C 309.264 231.820,308.798 232.000,308.364 232.000 C 307.930 232.000,307.466 232.285,307.332 232.632 C 307.187 233.012,306.792 233.187,306.345 233.070 C 305.879 232.948,305.600 233.086,305.600 233.437 C 305.600 233.747,305.407 234.000,305.171 234.000 C 304.618 234.000,303.600 235.018,303.600 235.571 C 303.600 235.807,303.330 236.000,303.000 236.000 C 302.533 236.000,302.400 235.465,302.400 233.582 L 302.400 231.163 299.700 231.282 L 297.000 231.400 296.883 250.800 C 296.819 261.470,296.875 270.965,297.007 271.900 L 297.249 273.600 299.192 273.600 C 302.673 273.600,302.400 274.795,302.400 259.557 C 302.400 247.485,302.469 246.000,303.030 246.000 C 303.488 246.000,303.627 245.680,303.537 244.827 C 303.450 243.998,303.685 243.420,304.339 242.853 C 304.847 242.412,305.304 241.777,305.353 241.441 C 305.402 241.105,305.838 240.488,306.321 240.068 C 306.805 239.649,307.200 239.102,307.200 238.853 C 307.200 238.604,307.650 238.400,308.200 238.400 C 308.793 238.400,309.200 238.171,309.200 237.837 C 309.200 237.483,309.479 237.348,309.955 237.472 C 310.370 237.581,310.831 237.474,310.978 237.235 C 311.126 236.996,311.782 236.800,312.436 236.800 C 313.124 236.800,313.722 236.547,313.855 236.200 C 314.029 235.747,314.761 235.600,316.843 235.600 C 319.027 235.600,319.600 235.725,319.600 236.200 C 319.600 236.619,320.022 236.800,321.000 236.800 C 321.770 236.800,322.400 236.980,322.400 237.200 C 322.400 237.420,322.773 237.600,323.229 237.600 C 324.013 237.600,325.200 238.443,325.200 239.000 C 325.200 239.415,326.305 240.400,326.771 240.400 C 327.150 240.400,327.384 241.236,327.247 242.100 C 327.221 242.265,327.380 242.400,327.600 242.400 C 327.820 242.400,328.000 243.195,328.000 244.167 C 328.000 245.138,328.176 245.993,328.391 246.067 C 328.634 246.150,328.793 251.161,328.812 259.321 C 328.843 273.255,328.898 273.940,329.923 273.110 C 330.440 272.692,330.495 272.696,330.232 273.135 C 329.976 273.560,330.347 273.641,332.055 273.533 L 334.200 273.396 334.305 257.898 C 334.374 247.644,334.272 242.400,334.005 242.400 C 333.782 242.400,333.600 241.770,333.600 241.000 C 333.600 240.086,333.411 239.600,333.055 239.600 C 332.690 239.600,332.574 239.271,332.702 238.600 C 332.842 237.867,332.721 237.600,332.247 237.600 C 331.882 237.600,331.600 237.274,331.600 236.855 C 331.600 235.981,329.745 234.000,328.926 234.000 C 328.616 234.000,327.945 233.550,327.435 233.000 C 326.925 232.450,326.214 232.000,325.854 232.000 C 325.494 232.000,325.200 231.820,325.200 231.600 C 325.200 231.379,324.148 231.200,322.843 231.200 C 321.116 231.200,320.424 231.039,320.255 230.600 C 320.081 230.145,319.342 230.000,317.200 230.000 C 315.058 230.000,314.319 230.145,314.145 230.600 M276.407 252.245 C 276.419 265.257,276.573 273.260,276.813 273.408 C 277.026 273.540,277.203 273.412,277.206 273.124 C 277.211 272.693,277.271 272.693,277.545 273.124 C 277.765 273.472,278.540 273.607,279.839 273.524 L 281.800 273.400 281.904 252.279 L 282.007 231.158 279.197 231.240 L 276.387 231.322 276.407 252.245 M197.800 238.000 C 197.664 238.220,197.823 238.400,198.153 238.400 C 198.483 238.400,198.864 238.220,199.000 238.000 C 199.136 237.780,199.867 237.600,200.624 237.600 C 201.381 237.600,202.000 237.780,202.000 238.000 C 202.000 238.220,202.630 238.400,203.400 238.400 C 204.378 238.400,204.800 238.581,204.800 239.000 C 204.800 239.346,205.161 239.600,205.653 239.600 C 206.122 239.600,206.833 239.977,207.232 240.437 C 207.631 240.897,208.145 241.158,208.374 241.016 C 208.614 240.868,208.701 240.993,208.579 241.311 C 208.462 241.615,208.823 242.205,209.383 242.626 C 209.943 243.046,210.400 243.636,210.400 243.938 C 210.400 244.239,210.642 244.393,210.938 244.279 C 211.328 244.129,211.422 244.352,211.280 245.096 C 211.127 245.893,211.207 246.045,211.642 245.783 C 212.115 245.497,212.117 245.548,211.655 246.118 C 211.189 246.693,211.203 246.826,211.755 247.038 C 213.721 247.793,211.326 248.000,200.644 248.000 L 188.888 248.000 188.724 246.600 C 188.611 245.635,188.722 245.200,189.080 245.200 C 189.366 245.200,189.600 244.827,189.600 244.371 C 189.600 243.587,190.443 242.400,191.000 242.400 C 191.415 242.400,192.400 241.295,192.400 240.829 C 192.400 240.593,192.670 240.400,193.000 240.400 C 193.330 240.400,193.600 240.147,193.600 239.837 C 193.600 239.472,193.880 239.348,194.400 239.484 C 194.921 239.620,195.200 239.496,195.200 239.129 C 195.200 238.819,195.785 238.374,196.500 238.139 C 197.215 237.904,197.856 237.687,197.924 237.656 C 197.992 237.625,197.936 237.780,197.800 238.000 M130.400 256.367 C 130.400 257.449,130.496 258.585,130.613 258.891 C 130.851 259.509,129.562 261.200,128.853 261.200 C 128.604 261.200,128.400 261.335,128.400 261.500 C 128.399 262.011,126.532 264.000,126.053 264.000 C 125.804 264.000,125.600 264.180,125.600 264.400 C 125.600 264.620,125.054 264.800,124.387 264.800 C 123.679 264.800,123.079 265.049,122.945 265.400 C 122.597 266.306,116.587 266.265,116.238 265.354 C 116.073 264.926,115.667 264.770,115.032 264.892 C 114.413 265.010,114.136 264.911,114.251 264.613 C 114.348 264.358,113.972 263.906,113.414 263.607 C 112.856 263.309,112.400 262.746,112.400 262.356 C 112.400 261.966,112.220 261.536,112.000 261.400 C 111.780 261.264,111.600 260.533,111.600 259.776 C 111.600 259.019,111.780 258.400,112.000 258.400 C 112.220 258.400,112.400 258.130,112.400 257.800 C 112.400 257.470,112.625 257.245,112.900 257.300 C 113.175 257.355,113.355 257.175,113.300 256.900 C 113.245 256.625,113.470 256.400,113.800 256.400 C 114.130 256.400,114.400 256.220,114.400 256.000 C 114.400 255.780,115.030 255.600,115.800 255.600 C 116.778 255.600,117.200 255.419,117.200 255.000 C 117.200 254.491,118.200 254.400,123.800 254.400 L 130.400 254.400 130.400 256.367 " stroke="none" fill="#546c7c" fill-rule="evenodd"></path><path id="path3" d="M77.312 210.695 C 78.364 210.777,79.984 210.776,80.912 210.692 C 81.840 210.608,80.980 210.541,79.000 210.542 C 77.020 210.543,76.260 210.612,77.312 210.695 M354.185 234.000 C 354.185 244.450,354.236 248.725,354.300 243.500 C 354.363 238.275,354.363 229.725,354.300 224.500 C 354.236 219.275,354.185 223.550,354.185 234.000 M67.728 223.200 C 67.728 224.630,67.801 225.215,67.889 224.500 C 67.978 223.785,67.978 222.615,67.889 221.900 C 67.801 221.185,67.728 221.770,67.728 223.200 M354.157 266.400 C 354.157 269.370,354.220 270.585,354.297 269.100 C 354.374 267.615,354.374 265.185,354.297 263.700 C 354.220 262.215,354.157 263.430,354.157 266.400 " stroke="none" fill="#54747c" fill-rule="evenodd"></path><path id="path4" d="M195.305 132.287 C 195.914 132.379,196.814 132.377,197.305 132.282 C 197.797 132.187,197.300 132.111,196.200 132.114 C 195.100 132.117,194.697 132.195,195.305 132.287 M223.705 132.287 C 224.314 132.379,225.214 132.377,225.705 132.282 C 226.197 132.187,225.700 132.111,224.600 132.114 C 223.500 132.117,223.097 132.195,223.705 132.287 M229.271 132.642 C 229.620 132.991,230.215 133.215,230.594 133.138 C 231.068 133.043,230.870 132.845,229.959 132.504 C 228.751 132.051,228.691 132.063,229.271 132.642 M258.105 134.676 C 258.477 135.048,258.915 135.218,259.079 135.054 C 259.243 134.891,259.112 134.589,258.788 134.384 C 257.815 133.769,257.382 133.953,258.105 134.676 M241.941 134.901 C 242.143 135.103,242.733 135.201,243.254 135.119 C 244.055 134.993,243.998 134.937,242.887 134.752 C 242.093 134.621,241.719 134.679,241.941 134.901 M245.126 267.900 C 249.376 267.964,256.216 267.964,260.326 267.899 C 264.437 267.834,260.960 267.781,252.600 267.781 C 244.240 267.782,240.877 267.835,245.126 267.900 " stroke="none" fill="#586c94" fill-rule="evenodd"></path></g></svg>